<?xml version="1.0" encoding="UTF-8" standalone="no" ?>
<!DOCTYPE svg PUBLIC "-//W3C//DTD SVG 1.1//EN" "http://www.w3.org/Graphics/SVG/1.1/DTD/svg11.dtd">
<svg xmlns="http://www.w3.org/2000/svg" xmlns:xlink="http://www.w3.org/1999/xlink" version="1.1" width="500" height="500" viewBox="0 0 500 500" xml:space="preserve">
<desc>Created with Fabric.js 4.6.0</desc>
<defs>
</defs>
<g transform="matrix(1.71 0 0 1.71 241.67 235.08)" id="cZqIf8ALVAN-9zINjE2hg"  >
<path style="stroke: rgb(0,0,0); stroke-width: 1; stroke-dasharray: none; stroke-linecap: butt; stroke-dashoffset: 0; stroke-linejoin: miter; stroke-miterlimit: 4; fill: rgb(252,69,130); fill-rule: nonzero; opacity: 1;" vector-effect="non-scaling-stroke"  transform=" translate(0, 0)" d="M -84.34343 -87.95348 C -84.34343 -107.71638 -68.32244 -123.73737 -48.55954 -123.73737 L 48.55955 -123.73737 L 48.55955 -123.73737 C 68.32245 -123.73737 84.34344 -107.71638 84.34344 -87.95348 L 84.34344 87.95349 L 84.34344 87.95349 C 84.34344 107.71639 68.32245 123.73738 48.55955 123.73738 L -48.55954 123.73738 L -48.55954 123.73738 C -68.32244 123.73738 -84.34343 107.71639 -84.34343 87.95349 z" stroke-linecap="round" />
</g>
<g transform="matrix(1.72 0 0 1.64 241.67 129.9)" id="f5ZAbLR1QErdyJZZZt-B1"  >
<path style="stroke: rgb(0,0,0); stroke-width: 1; stroke-dasharray: none; stroke-linecap: butt; stroke-dashoffset: 0; stroke-linejoin: miter; stroke-miterlimit: 4; fill: none; fill-rule: nonzero; opacity: 1;" vector-effect="non-scaling-stroke"  transform=" translate(0, 0)" d="M -66.01307 -28.39976 C -66.01307 -41.05118 -56.2673 -51.30718 -44.24527 -51.30718 L 44.24528 -51.30718 L 44.24528 -51.30718 C 56.2673 -51.30718 66.01308 -41.05118 66.01308 -28.399760000000004 L 66.01308 28.399769999999993 L 66.01308 28.399769999999993 C 66.01308 41.05118999999999 56.26731 51.30718999999999 44.24528 51.30718999999999 L -44.24527 51.30718999999999 L -44.24527 51.30718999999999 C -56.267289999999996 51.30718999999999 -66.01307 41.05118999999999 -66.01307 28.399769999999993 z" stroke-linecap="round" />
</g>
<g transform="matrix(1.81 0 0 1.81 347.69 356.02)" id="JgsN-UvhNrOaQCZcKqNNT"  >
<path style="stroke: rgb(0,0,0); stroke-width: 1; stroke-dasharray: none; stroke-linecap: butt; stroke-dashoffset: 0; stroke-linejoin: miter; stroke-miterlimit: 4; fill: rgb(234,99,184); fill-rule: nonzero; opacity: 1;" vector-effect="non-scaling-stroke"  transform=" translate(0, 0)" d="M -57.02893 3.01205 L -79.11728 44.37751 C -79.11728 44.37751 -83.13333999999999 54.81928 -73.09317999999999 61.24498 C -63.05301999999999 67.67068 -30.939609999999988 78.11245 -30.939609999999988 78.11245 L 8.031310000000012 73.53632999999999 L 24.095570000000013 44.377509999999994 L 38.15179000000001 67.67067999999999 L 73.89476000000002 64.05622 C 73.89476000000002 64.05622 83.13171000000003 59.23694 78.71404000000003 46.787139999999994 C 74.29637000000002 34.33734 57.02729000000002 3.012039999999992 57.02729000000002 3.012039999999992 L 76.70600000000002 -7.429730000000008 C 76.70600000000002 -7.429730000000008 80.32046000000001 -8.634550000000008 78.71403000000002 -16.26507000000001 C 77.10760000000002 -23.89559000000001 42.97106000000002 -35.943780000000004 42.97106000000002 -35.943780000000004 L 38.151780000000024 -54.01607 C 38.151780000000024 -54.01607 34.93893000000002 -64.05623 27.308410000000023 -64.45784 C 19.677890000000023 -64.85945000000001 -19.679539999999974 -78.11246 -19.679539999999974 -78.11246 C -19.679539999999974 -78.11246 -32.12933999999997 -75.30122 -33.73575999999997 -68.47391 C -35.342189999999974 -61.64660000000001 -40.56306999999997 -42.771100000000004 -40.56306999999997 -42.771100000000004 L -76.70764999999997 -23.895600000000005 C -76.70764999999997 -23.895600000000005 -79.51888999999997 -20.682750000000006 -79.11728999999997 -16.265080000000005 C -78.71567999999996 -11.847410000000004 -57.02893999999997 3.0120299999999958 -57.02893999999997 3.0120299999999958 z" stroke-linecap="round" />
</g>
<g transform="matrix(1.81 0 0 1.81 332.49 367.17)" id="UKgxU-8UbcZc7bj5BZxEH"  >
<path style="stroke: rgb(0,0,0); stroke-width: 1; stroke-dasharray: none; stroke-linecap: butt; stroke-dashoffset: 0; stroke-linejoin: miter; stroke-miterlimit: 4; fill: rgb(255,255,255); fill-opacity: 0; fill-rule: nonzero; opacity: 1;" vector-effect="non-scaling-stroke"  transform=" translate(0, 0)" d="M -18.48492 70.8532 C -18.48492 70.8532 -25.90963 69.31125 -26.69088 64.62375 C -27.47213 59.93625 0.9132899999999999 3.3670100000000005 0.9132899999999999 3.3670100000000005 L -18.48492 5.97118 C -18.48492 5.97118 -32.15963 2.4181300000000006 -31.899209999999997 -6.17562 C -31.638789999999997 -14.76937 8.417170000000006 -36.21632 8.417170000000006 -36.21632 C 8.417170000000006 -36.21632 8.204960000000005 -71.11215 31.902870000000007 -70.85174" stroke-linecap="round" />
</g>
<g transform="matrix(1.81 0 0 1.81 251.48 357.21)" id="pSFbnEGOHRO32L0gr-ESH"  >
<path style="stroke: rgb(0,0,0); stroke-width: 1; stroke-dasharray: none; stroke-linecap: butt; stroke-dashoffset: 0; stroke-linejoin: miter; stroke-miterlimit: 4; fill: rgb(255,255,255); fill-opacity: 0; fill-rule: nonzero; opacity: 1;" vector-effect="non-scaling-stroke"  transform=" translate(0, 0)" d="M 24.28198 11.09661 L -24.281989999999997 -11.0966" stroke-linecap="round" />
</g>
<g transform="matrix(0.45 0 0 0.45 139.64 366.56)" id="DLXFIH83oGMgm-FcuHFkH"  >
<path style="stroke: rgb(0,0,0); stroke-width: 1; stroke-dasharray: none; stroke-linecap: butt; stroke-dashoffset: 0; stroke-linejoin: miter; stroke-miterlimit: 4; fill: rgb(116,202,50); fill-rule: nonzero; opacity: 1;" vector-effect="non-scaling-stroke"  transform=" translate(0, 0)" d="M 301 10.17784 L 126.50953999999999 282.29322 L -180.22123000000002 222.67784 L -301 -13.860619999999983 L -124.452 -282.29321999999996 L 189.97108000000003 -220.59138999999996 z" stroke-linecap="round" />
</g>
<g transform="matrix(1.88 0 0 1.88 166.55 398.21)" id="hf1DZHNDJ7SJHUEDV4gVb"  >
<path style="stroke: rgb(0,0,0); stroke-width: 1; stroke-dasharray: none; stroke-linecap: butt; stroke-dashoffset: 0; stroke-linejoin: miter; stroke-miterlimit: 4; fill: rgb(255,255,255); fill-opacity: 0; fill-rule: nonzero; opacity: 1;" vector-effect="non-scaling-stroke"  transform=" translate(0, 0)" d="M -28.50727 -39.23611 L -37.88227 39.23611 L -28.50727 -39.23611 L 37.882259999999995 7.6388900000000035" stroke-linecap="round" />
</g>
<g transform="matrix(1.88 0 0 1.88 166.81 295.06)" id="xPrMkiUpSnOh_kQICbj6J"  >
<path style="stroke: rgb(0,0,0); stroke-width: 1; stroke-dasharray: none; stroke-linecap: butt; stroke-dashoffset: 0; stroke-linejoin: miter; stroke-miterlimit: 4; fill: rgb(255,255,255); fill-opacity: 0; fill-rule: nonzero; opacity: 1;" vector-effect="non-scaling-stroke"  transform=" translate(0, 0)" d="M -28.64583 15.20139 L 28.645840000000003 -15.20139" stroke-linecap="round" />
</g>
<g transform="matrix(2.04 0 0 2.04 96.53 279.59)" id="lk7uzw0fuOelGPLMqTY_j"  >
<path style="stroke: rgb(0,0,0); stroke-width: 1; stroke-dasharray: none; stroke-linecap: butt; stroke-dashoffset: 0; stroke-linejoin: miter; stroke-miterlimit: 4; fill: rgb(255,255,255); fill-opacity: 0; fill-rule: nonzero; opacity: 1;" vector-effect="non-scaling-stroke"  transform=" translate(0, 0)" d="M 7.63538 21.61495 L -7.635390000000001 -21.614959999999996 z" stroke-linecap="round" />
</g>
<g transform="matrix(1.88 0 0 1.88 59.22 343.02)" id="jHnts5ypdSvlw0hHr8yrW"  >
<path style="stroke: rgb(0,0,0); stroke-width: 1; stroke-dasharray: none; stroke-linecap: butt; stroke-dashoffset: 0; stroke-linejoin: miter; stroke-miterlimit: 4; fill: rgb(255,255,255); fill-opacity: 0; fill-rule: nonzero; opacity: 1;" vector-effect="non-scaling-stroke"  transform=" translate(0, 0)" d="M 28.1521 -9.84401 L -28.1521 9.84401 z" stroke-linecap="round" />
</g>
<g transform="matrix(1.88 0 0 1.88 122.71 369.2)" id="NXbvjNeE1aNV9BFmZntvg"  >
<path style="stroke: rgb(0,0,0); stroke-width: 1; stroke-dasharray: none; stroke-linecap: butt; stroke-dashoffset: 0; stroke-linejoin: miter; stroke-miterlimit: 4; fill: rgb(255,255,255); fill-opacity: 0; fill-rule: nonzero; opacity: 1;" vector-effect="non-scaling-stroke"  transform=" translate(0, 0)" d="M -61.22973 -3.5967 L -15.03481 55.1875 L 61.22971999999999 22.9155 L 52.63184999999999 -55.18749999999999" stroke-linecap="round" />
</g>
<g transform="matrix(1.88 0 0 1.88 234.77 431.34)" id="wluYJuWOUofpEK2ByFvhF"  >
<path style="stroke: rgb(0,0,0); stroke-width: 1; stroke-dasharray: none; stroke-linecap: butt; stroke-dashoffset: 0; stroke-linejoin: miter; stroke-miterlimit: 4; fill: rgb(255,255,255); fill-opacity: 0; fill-rule: nonzero; opacity: 1;" vector-effect="non-scaling-stroke"  transform=" translate(0, 0)" d="M -21.75659 32.9889 L 1.0473500000000016 -11.196019999999997 L 21.756590000000003 -32.98891" stroke-linecap="round" />
</g>
</svg>